#!OML:ASF F:\VICON\USERDATA\INSTALL\rory3\rory3.ASF
:FULLY-SPECIFIED
:DEGREES
271
root -2.44525 16.917 13.1298 3.66234 75.9534 -165.252
lowerback 0.750214 1.36523 7.64219
upperback -8.14262 2.6962 3.81593
thorax -8.92297 1.00684 -0.443562
lowerneck -46.9199 -9.10666 -20.8094
upperneck 4.32968 -1.07755 15.0845
head 7.63385 1.48091 8.7205
rclavicle 1.44715e-013 3.49861e-014
rhumerus 79.1152 -27.1211 -10.7119
rradius 27.8457
rwrist 26.4387
rhand -32.9609 95.5297
rfingers 7.12502
rthumb -6.17647 -1314.58
lclavicle 1.44715e-013 3.49861e-014
lhumerus 53.4588 30.6764 16.9877
lradius 48.4945
lwrist 2.43772
lhand -46.6656 95.1624
lfingers 7.12502
lthumb -19.3857 -66.1087
rfemur -73.4583 -33.1752 5.61347
rtibia 92.5028
rfoot -21.8676 -23.0604
rtoes 5.2672
lfemur -51.8494 16.1296 21.1923
ltibia 32.1955
lfoot -22.1925 22.9818
ltoes -3.10615
272
root -2.44887 16.9377 12.9835 10.1665 75.7745 -158.051
lowerback 1.40553 1.47878 6.04075
upperback -7.85748 2.78404 3.57958
thorax -9.01771 1.15604 0.16116
lowerneck -47.4141 -9.19999 -21.1714
upperneck 4.76012 -0.916478 15.3087
head 7.79781 1.57746 8.91695
rclavicle -1.59028e-014 1.59028e-015
rhumerus 79.1273 -27.7891 -9.84792
rradius 27.4699
rwrist 26.1812
rhand -33.1579 95.2287
rfingers 7.12502
rthumb -6.36664 -1314.89
lclavicle -1.59028e-014 1.59028e-015
lhumerus 53.5951 30.7244 16.5465
lradius 47.6277
lwrist 3.5301
lhand -46.5229 94.4201
lfingers 7.12502
lthumb -19.2486 -65.3527
rfemur -71.9158 -33.0986 5.73786
rtibia 92.8072
rfoot -21.9734 -23.0395
rtoes 6.11048
lfemur -52.6014 17.5387 21.8062
ltibia 31.5584
lfoot -22.1073 23.8253
ltoes -2.77957
273
root -2.45609 16.9477 12.7905 14.1398 75.7309 -152.651
lowerback 2.84545 1.49657 5.66934
upperback -7.38846 2.85722 3.37137
thorax -9.34871 1.19758 0.0977428
lowerneck -47.8621 -9.11239 -21.4065
upperneck 5.30801 -0.590373 15.3728
head 7.96975 1.72084 9.05771
rclavicle -1.28812e-013 -2.70347e-014
rhumerus 79.4308 -28.3756 -9.28225
rradius 27.0599
rwrist 26.292
rhand -33.089 94.5321
rfingers 7.12502
rthumb -6.30014 -1315.58
lclavicle -1.28812e-013 -2.70347e-014
lhumerus 53.6228 30.7628 16.2834
lradius 46.9718
lwrist 4.50304
lhand -46.6181 94.8145
lfingers 7.12502
lthumb -19.3401 -65.7562
rfemur -69.1819 -33.7685 5.83475
rtibia 92.7561
rfoot -21.3497 -23.1732
rtoes 6.35869
lfemur -52.937 18.3161 22.9515
ltibia 31.0806
lfoot -21.7851 25.0856
ltoes -3.32577
274
root -2.46999 16.9544 12.5997 19.018 75.6939 -146.299
lowerback 4.30194 1.44623 5.02686
upperback -6.95908 2.79226 3.10328
thorax -9.74811 1.18451 0.135589
lowerneck -48.2075 -9.00235 -21.5639
upperneck 5.73974 -0.319925 15.5409
head 8.10586 1.85553 9.21815
rclavicle -1.00983e-013 -9.54166e-015
rhumerus 79.6819 -28.9116 -8.70918
rradius 26.5546
rwrist 26.4053
rhand -33.1527 94.2035
rfingers 7.12502
rthumb -6.36167 -1315.91
lclavicle -1.00983e-013 -9.54166e-015
lhumerus 53.7749 30.8056 16.2579
lradius 46.2581
lwrist 5.1172
lhand -46.8099 95.9424
lfingers 7.12502
lthumb -19.5245 -66.9027
rfemur -66.168 -34.4885 5.36275
rtibia 92.4464
rfoot -20.4689 -23.5015
rtoes 5.43225
lfemur -53.3273 18.6463 24.1249
ltibia 30.7776
lfoot -21.8222 26.3539
ltoes -2.22505
275
root -2.49865 16.9663 12.4216 24.6778 75.5975 -139.455
lowerback 5.42329 1.3883 4.09495
upperback -6.6631 2.64524 2.79947
thorax -10.1089 1.15334 0.319421
lowerneck -48.2415 -8.75944 -21.3911
upperneck 5.85927 -0.0974054 15.433
head 8.11383 1.94108 9.18829
rclavicle -1.4392e-013 9.54166e-015
rhumerus 79.5835 -29.3769 -7.87522
rradius 26.2028
rwrist 26.1694
rhand -33.4307 93.6001
rfingers 7.12502
rthumb -6.63001 -1316.52
lclavicle -1.4392e-013 9.54166e-015
lhumerus 53.739 30.762 16.1581
lradius 45.9501
lwrist 5.93879
lhand -47.2281 98.1673
lfingers 7.12502
lthumb -19.9266 -69.1689
rfemur -63.2186 -35.1192 4.64568
rtibia 91.883
rfoot -19.9966 -23.67
rtoes 5.69697
lfemur -54.023 18.936 25.3085
ltibia 30.5998
lfoot -22.1814 27.7176
ltoes -1.08251
276
root -2.54156 16.9782 12.2285 27.5565 75.4142 -135.597
lowerback 6.28965 1.39253 4.09741
upperback -6.38952 2.66729 2.58449
thorax -10.3108 1.14671 0.0629172
lowerneck -48.0048 -8.30055 -20.7372
upperneck 5.72857 0.0928658 15.0664
head 8.02218 1.98918 8.9604
rclavicle 1.32788e-013 -7.95139e-015
rhumerus 79.2126 -29.8063 -6.85091
rradius 26.0217
rwrist 25.5516
rhand -33.85 92.4928
rfingers 7.12502
rthumb -7.03473 -1317.64
lclavicle 1.32788e-013 -7.95139e-015
lhumerus 53.6436 30.6317 15.8497
lradius 45.8237
lwrist 6.90445
lhand -47.5587 100.134
lfingers 7.12502
lthumb -20.2443 -71.1694
rfemur -60.1605 -35.394 4.50645
rtibia 90.9507
rfoot -19.9299 -23.5487
rtoes 6.27284
lfemur -54.6453 19.8381 27.1164
ltibia 30.3564
lfoot -21.4668 29.5242
ltoes -2.81701
277
root -2.59645 16.9804 12.0359 29.7573 74.6896 -132.595
lowerback 6.75154 1.55363 3.95932
upperback -6.08727 2.86049 2.34095
thorax -10.2364 1.24166 -0.161835
lowerneck -47.8502 -7.81067 -19.8541
upperneck 5.5901 0.194362 14.7637
head 7.95679 2.01437 8.71724
rclavicle -1.82087e-013 -5.88403e-014
rhumerus 78.7601 -30.2623 -5.86438
rradius 25.9206
rwrist 24.9184
rhand -33.6297 91.2856
rfingers 7.12502
rthumb -6.82213 -1318.84
lclavicle -1.82087e-013 -5.88403e-014
lhumerus 53.4917 30.3572 15.0943
lradius 45.5304
lwrist 7.74575
lhand -47.0231 97.654
lfingers 7.12502
lthumb -19.7295 -68.6352
rfemur -57.3305 -35.1107 4.32032
rtibia 89.7209
rfoot -19.8564 -23.2906
rtoes 7.63298
lfemur -54.6926 21.2358 29.103
ltibia 30.005
lfoot -21.8948 30.5991
ltoes -1.69012
278
root -2.64203 16.9717 11.8404 33.438 74.2352 -127.424
lowerback 8.0282 1.47949 3.46476
upperback -5.67975 2.7032 1.97534
thorax -10.5502 1.17154 -0.28757
lowerneck -47.9204 -7.38201 -18.9677
upperneck 5.53736 0.251665 14.5775
head 7.94948 2.04167 8.52568
rclavicle -2.46493e-013 -7.79236e-014
rhumerus 78.098 -30.7551 -4.6581
rradius 25.8793
rwrist 24.2749
rhand -33.4051 90.3876
rfingers 7.12502
rthumb -6.60533 -1319.74
lclavicle -2.46493e-013 -7.79236e-014
lhumerus 53.1593 30.1232 14.2958
lradius 45.6458
lwrist 8.43254
lhand -46.4923 95.218
lfingers 7.12502
lthumb -19.2191 -66.1476
rfemur -53.2284 -35.2276 3.08121
rtibia 88.0911
rfoot -19.49 -23.3926
rtoes 7.24857
lfemur -54.4715 21.2937 30.942
ltibia 29.3589
lfoot -22.9788 31.8166
ltoes 0.524616
279
root -2.70352 16.9559 11.6475 36.3193 73.4374 -123.234
lowerback 8.98437 1.52219 2.96251
upperback -5.34416 2.69275 1.71321
thorax -10.7547 1.18344 -0.312238
lowerneck -47.7666 -7.12521 -18.6021
upperneck 5.38291 0.335181 14.5419
head 7.87575 2.08483 8.46333
rclavicle 6.67916e-014 1.59028e-014
rhumerus 77.3583 -31.1218 -2.94018
rradius 25.807
rwrist 23.3334
rhand -34.0936 -89.4115
rfingers 7.12502
rthumb -7.26996 -1320.73
lclavicle 6.67916e-014 1.59028e-014
lhumerus 52.6999 29.9085 13.9948
lradius 46.0673
lwrist 8.95068
lhand -46.4566 95.3413
lfingers 7.12502
lthumb -19.1848 -66.2675
rfemur -49.3226 -34.7788 1.99181
rtibia 86.1218
rfoot -18.694 -23.9216
rtoes 4.90489
lfemur -53.931 21.5813 33.0029
ltibia 28.5879
lfoot -24.2326 33.1884
ltoes 2.43848
280
root -2.7846 16.9585 11.4529 38.3549 72.7739 -120.681
lowerback 9.11146 1.62514 2.68848
upperback -5.24668 2.80055 1.75088
thorax -10.7333 1.25778 -0.140886
lowerneck -47.4638 -7.10279 -18.9056
upperneck 5.26813 0.450985 14.6778
head 7.78839 2.13998 8.56693
rclavicle -4.77083e-015 2.06736e-014
rhumerus 77.0596 -31.4017 -1.46067
rradius 25.8204
rwrist 22.7994
rhand -34.4548 -88.0402
rfingers 7.12502
rthumb -7.61852 -1322.12
lclavicle -4.77083e-015 2.06736e-014
lhumerus 52.1533 29.6115 13.9871
lradius 46.2808
lwrist 9.39202
lhand -46.4706 95.9611
lfingers 7.12502
lthumb -19.1982 -66.8887
rfemur -46.589 -33.9286 1.71059
rtibia 84.1048
rfoot -18.4645 -24.0719
rtoes 6.56441
lfemur -53.4409 22.692 35.4775
ltibia 27.3153
lfoot -26.6402 33.6289
ltoes 6.85564
